 <svg
        width="285"
        height="38"
        viewBox="0 0 285 38"
        fill="none"
        xmlns="http://www.w3.org/2000/svg"
      >
        <path
          d="M0 36.3085H7.00514V22.3756H22.8898V15.5014H0V36.3085ZM0 0.322937V7.19713H22.8898V0.322937H0Z"
          fill="black"
        />
        <path
          d="M38.441 0.322937H32.4041L19.219 36.3085H26.6347L35.4117 11.363L44.2643 36.3085H51.6797L38.441 0.322937Z"
          fill="black"
        />
        <path
          d="M35.4729 36.3085L29.9333 27.4413H40.9652L35.4729 36.3085Z"
          fill="#5B5B5B"
        />
        <path
          d="M51.2482 30.9982L50.3066 29.9551L54.916 24.2532L56.1069 25.7987C57.0395 27.0075 58.2576 27.9992 59.6234 28.6637C60.9081 29.291 62.2957 29.6185 63.6343 29.6185C65.2143 29.6185 66.5614 29.2587 67.4273 28.6083C68.208 28.0224 68.5874 27.2381 68.5874 26.2047C68.5874 25.0788 68.2527 24.3824 67.4007 23.7226C66.4186 22.9658 64.8301 22.3476 62.9874 21.6281C62.8313 21.568 62.6709 21.5036 62.5057 21.4388C59.9756 20.4655 57.5441 19.4644 55.5938 17.8589C54.4606 16.9269 53.6219 15.898 53.0283 14.717C52.3681 13.4068 52.0334 11.9167 52.0334 10.288C52.0334 7.45077 53.2204 4.82567 55.3711 2.89696C57.4594 1.02864 60.2655 0 63.2779 0C67.1683 0 70.9656 1.44848 74.2539 4.18434L75.4412 5.17638L71.1617 10.934L69.9127 9.87284C67.713 7.99513 65.2942 6.92019 63.2779 6.92019C61.4037 6.92019 59.2083 7.75987 59.1726 10.1266C59.1593 11.183 59.65 11.7596 60.395 12.2996C61.4618 13.0745 63.1568 13.7434 64.9511 14.4539L64.9686 14.4586C65.25 14.574 65.5308 14.6894 65.8122 14.7999C68.3508 15.8288 70.7514 16.7977 72.5716 18.3479C74.7223 20.184 75.771 22.6013 75.771 25.7433C75.771 27.4458 75.4188 29.0282 74.7223 30.4488C74.0664 31.7778 73.1296 32.936 71.9248 33.8908C69.7299 35.6252 66.7714 36.585 63.5901 36.585C58.887 36.585 54.5054 34.6015 51.2482 30.9982Z"
          fill="black"
        />
        <path
          d="M99.2111 22.5601H85.7803V36.3085H78.7751V0.322937H85.7803V15.6859H99.2111V0.322937H106.216V36.3085H99.2111V22.5601Z"
          fill="black"
        />
        <path
          d="M120.118 35.063C118.02 34.1448 116.138 32.8346 114.522 31.1646C112.907 29.4943 111.64 27.5475 110.752 25.3791C109.833 23.1323 109.368 20.7471 109.368 18.2928C109.368 15.8385 109.833 13.4531 110.752 11.2065C111.64 9.03816 112.907 7.091 114.522 5.42102C116.138 3.75103 118.02 2.44083 120.118 1.52262C122.291 0.572192 124.597 0.0922852 126.971 0.0922852C129.345 0.0922852 131.652 0.572192 133.825 1.52262C135.922 2.44083 137.805 3.75104 139.42 5.42102C141.036 7.091 142.303 9.03816 143.19 11.2065C144.11 13.4531 144.574 15.8385 144.574 18.2928C144.574 20.7471 144.11 23.1323 143.19 25.3791C142.303 27.5475 141.036 29.4943 139.42 31.1646C137.805 32.8346 135.922 34.1448 133.825 35.063C131.652 36.0135 129.345 36.493 126.971 36.493C124.597 36.493 122.291 36.0135 120.118 35.063ZM119.475 10.5467C117.471 12.6181 116.369 15.3677 116.369 18.2975C116.369 21.227 117.471 23.9766 119.475 26.048C121.479 28.1197 124.138 29.2591 126.971 29.2591C129.805 29.2591 132.464 28.1197 134.467 26.048C136.47 23.9766 137.573 21.227 137.573 18.2975C137.573 15.3677 136.47 12.6181 134.467 10.5467C132.464 8.47535 129.8 7.33565 126.971 7.33565C124.142 7.33565 121.479 8.47535 119.475 10.5467Z"
          fill="black"
        />
        <path
          d="M154.708 13.8358V36.3082H147.703V0.322937H153.909L169.477 23.0028V0.322937H176.483V36.3082H170.142L154.708 13.8358Z"
          fill="black"
        />
        <path
          d="M181.475 2.62956L188.481 0.322937V36.3085H181.475V2.62956Z"
          fill="black"
        />
        <path
          d="M216.945 26.048C214.941 28.1197 212.282 29.2591 209.448 29.2591C206.615 29.2591 203.956 28.1197 201.952 26.048C199.949 23.9766 198.847 21.227 198.847 18.2975C198.847 15.3677 199.949 12.6181 201.952 10.5467C203.956 8.47535 206.62 7.33564 209.448 7.33564C212.277 7.33564 214.941 8.47535 216.945 10.5467C218.948 12.6181 220.05 15.3677 220.05 18.2975C220.05 21.227 218.948 23.9766 216.945 26.048H225.376C225.476 25.827 225.575 25.605 225.668 25.3791C226.587 23.1323 227.051 20.7471 227.051 18.2928C227.051 15.8385 226.587 13.4531 225.668 11.2065C224.78 9.03816 223.513 7.091 221.897 5.42101C220.282 3.75103 218.399 2.44083 216.302 1.52262C214.129 0.572192 211.822 0.0922852 209.448 0.0922852C207.075 0.0922852 204.768 0.572192 202.595 1.52262C200.497 2.44083 198.615 3.75104 197 5.42101C195.384 7.091 194.117 9.03816 193.229 11.2065C192.31 13.4531 191.846 15.8385 191.846 18.2928C191.846 20.7471 192.31 23.1323 193.229 25.3791C194.117 27.5475 195.384 29.4943 197 31.1646C198.615 32.8346 200.497 34.1448 202.595 35.063C204.768 36.0134 207.075 36.4927 209.448 36.4927C211.822 36.4927 214.129 36.0134 216.302 35.063C216.519 34.968 216.732 34.8662 216.945 34.7628V26.048Z"
          fill="black"
        />
        <path
          d="M219.239 37.8173H228.442L217.043 26.0305L207.693 25.8791L219.239 37.8173Z"
          fill="#5B5B5B"
        />
        <path
          d="M239.014 35.4413C237.377 34.7262 235.904 33.6969 234.641 32.3917C233.379 31.0859 232.388 29.5632 231.692 27.8701C230.974 26.1125 230.608 24.2486 230.608 22.3293V0.322937H237.613V22.3293C237.613 26.1817 240.648 29.3189 244.373 29.3189C248.099 29.3189 251.133 26.1817 251.133 22.3293V0.322937H258.139V22.3293C258.139 24.2486 257.772 26.1125 257.054 27.8701C256.362 29.5632 255.368 31.0859 254.105 32.3917C252.842 33.6969 251.369 34.7212 249.732 35.4413C248.032 36.184 246.229 36.562 244.373 36.562C242.517 36.5619 240.715 36.184 239.014 35.4413Z"
          fill="black"
        />
        <path
          d="M262.467 36.3085H285V29.5723H262.467V36.3085ZM262.467 21.8218H285V14.9476H262.467V21.8218ZM262.467 0.322937V7.19713H285V0.322937H262.467Z"
          fill="black"
        />
      </svg>